<?xml version="1.0" standalone="no"?>
<!DOCTYPE svg PUBLIC "-//W3C//DTD SVG 20010904//EN"
 "http://www.w3.org/TR/2001/REC-SVG-20010904/DTD/svg10.dtd">
<svg version="1.0" xmlns="http://www.w3.org/2000/svg"
 width="256.000000pt" height="256.000000pt" viewBox="0 0 256.000000 256.000000"
 preserveAspectRatio="xMidYMid meet">
<metadata>
Created by potrace 1.11, written by Peter Selinger 2001-2013
</metadata>
<g transform="translate(0.000000,256.000000) scale(0.100000,-0.100000)"
fill="#000000" stroke="none">
<path d="M769 2537 c-16 -36 -4 -48 81 -81 118 -47 191 -118 206 -202 3 -19
-3 -31 -27 -52 -98 -82 -146 -166 -163 -287 -2 -12 -24 -31 -57 -50 -265 -146
-444 -389 -504 -684 -16 -78 -21 -243 -11 -316 61 -417 359 -745 766 -841 81
-19 296 -25 383 -11 193 31 402 142 544 288 135 138 239 333 267 500 3 19 8
45 11 59 8 37 8 197 1 258 -37 300 -225 580 -497 738 -35 21 -67 42 -70 47 -4
5 -9 29 -13 54 -9 67 -62 157 -128 218 -32 30 -58 62 -58 72 1 34 37 98 74
131 40 35 108 72 168 91 42 14 58 34 50 63 -8 31 -45 31 -118 2 -130 -51 -208
-121 -242 -216 l-17 -49 -40 8 c-57 11 -187 8 -212 -5 -18 -10 -21 -7 -32 30
-18 59 -53 110 -103 151 -51 42 -160 95 -212 104 -31 5 -37 2 -47 -20z m654
-372 c87 -44 176 -153 177 -217 0 -15 -4 -16 -26 -8 -140 54 -401 58 -556 10
-54 -17 -58 -17 -58 -1 0 35 53 122 101 165 68 61 134 85 229 83 61 -2 87 -8
133 -32z m-163 -1169 c0 -714 -3 -905 -12 -908 -22 -8 -171 18 -243 42 -413
136 -669 528 -626 960 1 11 16 15 66 17 125 3 242 85 286 202 29 77 23 185
-14 257 -14 27 -33 56 -41 63 -9 8 -16 17 -16 22 0 17 157 125 236 162 91 42
233 81 312 85 l52 2 0 -904z m180 889 c19 -3 38 -5 42 -5 19 -1 159 -56 219
-85 162 -82 295 -216 385 -391 73 -140 100 -257 98 -429 -1 -95 -27 -255 -42
-255 -4 0 -18 18 -32 40 -55 90 -180 130 -283 91 -41 -16 -108 -82 -128 -126
-67 -146 42 -323 201 -328 28 -1 50 -5 50 -9 0 -7 -40 -46 -110 -107 -68 -59
-242 -146 -335 -167 -68 -16 -146 -26 -153 -20 -4 4 -7 412 -7 907 l0 899 30
-5 c16 -2 46 -7 65 -10z m-800 -360 c76 -153 -37 -335 -207 -335 -25 0 -33 4
-33 18 1 77 163 377 200 370 8 -2 26 -25 40 -53z m1337 -760 c101 -41 119
-185 31 -254 -45 -36 -122 -40 -167 -9 -54 37 -74 71 -74 126 0 35 6 58 23 82
47 66 112 85 187 55z"/>
<path d="M875 855 c-48 -17 -101 -74 -109 -118 -14 -79 22 -154 92 -188 133
-65 280 67 228 206 -21 53 -60 90 -111 104 -49 13 -51 13 -100 -4z m110 -100
c31 -30 32 -73 4 -109 -45 -57 -139 -19 -139 56 0 39 40 78 80 78 19 0 40 -9
55 -25z"/>
<path d="M1555 1669 c-87 -43 -138 -123 -138 -218 1 -254 338 -333 456 -106
43 84 22 207 -48 277 -67 67 -187 88 -270 47z m176 -85 c54 -32 74 -68 74
-134 0 -44 -5 -66 -21 -87 -72 -97 -219 -83 -268 25 -61 135 88 270 215 196z"/>
</g>
</svg>
